<?xml version="1.0" encoding="UTF-8" standalone="no"?>
<!-- Created with Inkscape (http://www.inkscape.org/) -->

<svg
   xmlns:dc="http://purl.org/dc/elements/1.1/"
   xmlns:cc="http://creativecommons.org/ns#"
   xmlns:rdf="http://www.w3.org/1999/02/22-rdf-syntax-ns#"
   xmlns:svg="http://www.w3.org/2000/svg"
   xmlns="http://www.w3.org/2000/svg"
   xmlns:sodipodi="http://sodipodi.sourceforge.net/DTD/sodipodi-0.dtd"
   xmlns:inkscape="http://www.inkscape.org/namespaces/inkscape"
   width="300"
   height="300"
   id="svg2"
   version="1.1"
   inkscape:version="0.48.3.1 r9886"
   sodipodi:docname="武-.svg">
  <defs
     id="defs4" />
  <sodipodi:namedview
     id="base"
     pagecolor="#ffffff"
     bordercolor="#666666"
     borderopacity="1.0"
     inkscape:pageopacity="0.0"
     inkscape:pageshadow="2"
     inkscape:zoom="1.979899"
     inkscape:cx="176.12622"
     inkscape:cy="150.74464"
     inkscape:document-units="px"
     inkscape:current-layer="layer1"
     showgrid="false"
     inkscape:window-width="1215"
     inkscape:window-height="1000"
     inkscape:window-x="65"
     inkscape:window-y="24"
     inkscape:window-maximized="1" />
  <metadata
     id="metadata7">
    <rdf:RDF>
      <cc:Work
         rdf:about="">
        <dc:format>image/svg+xml</dc:format>
        <dc:type
           rdf:resource="http://purl.org/dc/dcmitype/StillImage" />
        <dc:title></dc:title>
      </cc:Work>
    </rdf:RDF>
  </metadata>
  <g
     inkscape:label="Calque 1"
     inkscape:groupmode="layer"
     id="layer1"
     transform="translate(0,-752.36218)">
    <path
       style="fill:#000000"
       d="m 236.36652,1002.7437 c -0.0346,-19.14601 -1.52858,-37.33739 -3.31585,-40.42522 -1.78726,-3.08784 -11.97847,-6.29642 -22.64716,-7.13017 l -19.39754,-1.51593 -1.26896,-34.34572 -1.269,-34.34565 -70.11595,-1.30517 c -58.913144,-1.09657 -70.115997,-2.4443 -70.115997,-8.43525 0,-6.04625 10.717824,-7.13018 70.502377,-7.13018 l 70.50242,0 -1.28064,-16.63705 -1.28061,-16.63705 -66.97033,0 c -59.220054,0 -67.135348,-0.92256 -68.396611,-7.97172 -1.27433,-7.12222 5.494694,-8.13531 63.521401,-9.50688 67.61627,-1.59824 81.08219,-5.45705 70.04304,-20.07145 -4.43698,-5.87399 -15.30077,-6.58699 -64.87096,-4.25768 -52.309509,2.45802 -59.867013,1.86564 -62.222024,-4.87725 -1.474338,-4.22134 -0.475078,-9.17281 2.220592,-11.00332 2.695668,-1.83046 34.290389,-4.30958 70.210482,-5.50905 72.49034,-2.42075 74.12228,-1.83393 76.66112,27.56558 1.29064,14.94508 2.7417,16.618 14.41418,16.618 12.17342,0 13.11338,-1.32511 15.14227,-21.34801 1.53884,-15.18653 4.30372,-21.79434 9.57972,-22.89467 8.95878,-1.86834 13.25269,13.34773 11.27156,39.94234 l -1.38266,18.56067 -27.03976,1.41518 -27.03976,1.41517 0,18.78698 0,18.78694 30.28453,0 c 25.2113,0 30.28453,1.30877 30.28453,7.81276 0,6.79851 -3.93158,7.41128 -30.28453,4.72026 l -30.28453,-3.0925 0,28.55384 0,28.55384 19.3689,0 c 27.43918,0 33.32307,11.15947 31.65625,60.03979 -1.06,31.08647 -2.5337,37.56737 -8.84313,38.89117 -6.64831,1.3948 -7.57921,-2.6545 -7.63737,-33.2226 z M 57.6886,1017.5148 c -7.033798,-4.6964 -7.617423,-10.4678 -5.595327,-55.33133 1.241666,-27.54843 3.474501,-51.42511 4.961861,-53.05929 1.487359,-1.63419 5.465405,1.17751 8.840096,6.24829 4.131242,6.20757 6.135819,22.12272 6.135819,48.71532 l 0,39.49571 12.979082,0 12.979084,0 0.06619,-43.96932 c 0.07138,-47.51251 2.990852,-57.799 15.594412,-54.94893 6.46042,1.46087 7.93121,5.53756 7.1474,19.81049 l -0.98692,17.9711 24.12374,-3.31156 c 22.0541,-3.02749 23.99028,-2.55032 22.56838,5.56194 -1.16007,6.61832 -6.9156,9.71596 -22.64642,12.18831 -26.22999,4.12241 -28.76239,6.94539 -24.83475,27.68425 l 3.1508,16.63702 38.93081,-1.67073 c 30.82338,-1.32277 40.06167,-0.17346 44.36129,5.51863 4.36716,5.7815 4.33042,7.9703 -0.18733,11.1776 -8.85074,6.2832 -138.412355,7.4091 -147.588134,1.2825 z"
       id="path3054"
       inkscape:connector-curvature="0" />
  </g>
</svg>
